<svg version="1.0" xmlns="http://www.w3.org/2000/svg" viewBox="0 0 700 700"><path d="M200.2 236c-24.4 4.4-36.6 16-44.9 42.7l-2.8 8.8v59.5c0 59.1 0 59.6 2.3 67.5 3.2 11.2 9.3 23.3 14.7 29.3 5.7 6.4 17.6 12.5 28.5 14.7 9.8 2.1 31.3 2.1 41 .1 16.1-3.4 26.2-10.6 32.9-23.6 7.1-13.5 8.5-21.5 8.2-46.3l-.1-11.7h-44v15.1c0 18.1-1.8 27.9-6 32-7.7 7.7-23.1 5.6-27.8-3.8-3.9-7.7-4.2-12.5-4.2-72.8 0-60.8.3-65.5 4.3-72.7 4.9-8.8 20.8-10.6 27.9-3.1 4.5 4.7 5.1 7.8 5.7 26.8l.6 18 22.3.3 22.2.2v-14.5c0-21.6-2.6-32.4-11.2-46.2-6.4-10.2-13.5-15.1-27.3-18.8-7.1-2-34.3-2.9-42.3-1.5zm138.4 3.8c-.5.9-43.6 213.6-43.6 215.4 0 .4 9.7.8 21.5.8h21.4l.6-3.3c.3-1.7 2.3-12.4 4.4-23.7l3.7-20.5 18-.3 18-.2 3.8 24 3.9 24h42.7l-.6-2.8c-.3-1.5-10.1-50.2-21.7-108.2l-21.2-105.5-25.2-.3c-13.8-.1-25.4.2-25.7.6zm32.4 97.7c3.3 21.4 6.3 40 6.5 41.2.5 2.3.5 2.3-13 2.3-9.3 0-13.5-.3-13.5-1.1 0-1.8 12-79.1 12.7-81.9.8-3.2.3-6.1 7.3 39.5zm57.7-97.8c-.4.3-.7 7.8-.7 16.5v15.8h35v184h46v-184h34v-33h-56.8c-31.3 0-57.2.3-57.5.7z"/></svg>