<svg viewBox="0 0 67 28" fill="none" xmlns="http://www.w3.org/2000/svg"><g clip-path="url(#a)"><path d="M61.53 2.87a7.59 7.59 0 0 1 2.25-2.3c.5-.34.8-.34 1.1.3.4.95.75 1.95.45 3a1.14 1.14 0 0 0 .2 1.04c.3.4.55.8.8 1.15a3.12 3.12 0 0 1 .45 3.1 2.7 2.7 0 0 0-.1 1.54c.1.5.1 1 0 1.5a1.87 1.87 0 0 1-1.35 1.59 2.6 2.6 0 0 0-1.6 1 .52.52 0 0 1-.45.25c-.6.1-2.1-1.25-2.1-1.85v-.3c.05-1.8-.05-1.94-1.7-2.7a2.2 2.2 0 0 1-.9-.59c-.3-.4-.7-.35-1.15-.2-.45.15-.7.45-.65.95.15 1.2.2 2.42.15 3.64 0 .14.04.27.1.4 1.55 2.24 2.15 4.88 2.9 7.43.6 1.94 1.7 2.99 3.7 3.14.32.02.64.07.95.15a2.08 2.08 0 0 1 1.7 1.6c.35 1.04.15 1.29-.9 1.29h-3.25c-.42.02-.83-.12-1.15-.4a5.85 5.85 0 0 0-1.7-1 3.63 3.63 0 0 1-1.7-1.3 14.28 14.28 0 0 0-2-2.24c-1.4-1.44-2.9-2.84-4.2-4.34a5.67 5.67 0 0 1-1.6-3.78c0-.45-.1-.65-.6-.45a.97.97 0 0 1-.5.15c-1.4 0-2.1.84-2.6 2.09-.44 1.05-1.04 2.04-1.6 3.1a5.17 5.17 0 0 0-.5 2.09c0 1.2.3 1.6 1.4 1.99.7.25 1.36.5 1.7 1.2.4.8.3 1-.54 1.04h-3.4a.94.94 0 0 1-.95-.55l-.9-1.5a3.01 3.01 0 0 1-.35-2.68 5.9 5.9 0 0 0 .05-2.65 4.19 4.19 0 0 1 .85-3.49c.3-.34.3-.5-.2-.6a25.06 25.06 0 0 1-5.95-2.09c-1.6-.6-1.9-.5-2.35 1.15-.4 1.4-.8 2.8-1.1 4.24-.35 1.6.05 3.09.55 4.58.2.6.8.55 1.25.7 1 .3 1.85.7 2.25 1.75.35.8.3.9-.55.9-.85 0-1.7-.06-2.6 0-.76 0-1.5-.24-2.1-.7-2.4-1.6-3.1-4.04-3.3-6.68-.1-1.65-1-2.95-2.04-4.2-.2-.24-.4-.34-.7-.14-1.08.59-2.2 1.09-3.35 1.5a13.35 13.35 0 0 0-6.1 4.38 5.3 5.3 0 0 0-1.1 2.54c-.15.9.1 1.3 1 1.55s1.35.75 1.45 1.7c.05.4-.1.6-.5.6h-4.05a.83.83 0 0 1-.65-.4 4.26 4.26 0 0 1-.95-2.75c-.02-1.72.13-3.44.45-5.13a3.14 3.14 0 0 1 1.7-2.4c2.95-1.4 4.5-4.04 5.9-6.78.3-.55.05-.65-.45-.6-1.4.2-2.72.75-3.85 1.6a35.27 35.27 0 0 0-4.15 3.54 8.34 8.34 0 0 1-5.14 2.44c-3.65.2-5.35-1.84-5.2-5.13a4.8 4.8 0 0 1 1.2-3.04 2.12 2.12 0 0 1 2.25-.75c.75.2.95.6.65 1.34-.15.3-.35.55-.5.85-.22.3-.39.64-.5 1-.55 1.5.2 2.54 1.75 2.7 1.65.14 3-.56 4.24-1.55a22.4 22.4 0 0 0 4-4.14 10.38 10.38 0 0 1 7.2-4.04c1.15-.15 2.15-.65 3.25-.95a20.8 20.8 0 0 1 6.34-.9c1 .05 2-.14 2.9-.54 2.45-1 5-1 7.55-.5 2 .4 4 .9 5.95 1.4a8.3 8.3 0 0 0 3.5-.1c2.19-.56 4.43-.9 6.7-1a9.1 9.1 0 0 1 4.3.84c.99.45.99.45.74 1.4Z" fill="#000"/></g><defs><clipPath id="a"><path fill="#fff" d="M0 0h67v28h-67z"/></clipPath></defs></svg>