<svg viewBox="0 0 78 81" fill="none" xmlns="http://www.w3.org/2000/svg"><path d="M64.02 35.62h-49.99a3.17 3.17 0 0 1-3.18-3.16v-9.47a3.17 3.17 0 0 1 3.18-3.16h49.98a3.17 3.17 0 0 1 3.19 3.16v9.47a3.17 3.17 0 0 1-3.18 3.16Zm-49.99-13.37c-.4 0-.74.34-.74.74v9.47c0 .4.33.74.74.74h49.98c.41 0 .75-.33.75-.74v-9.47c0-.4-.34-.74-.75-.74h-49.98Z" fill="#fff"/><path d="M57.04 68.05h-36.04a6.11 6.11 0 0 1-6.13-6.08v-27.56c0-.67.55-1.21 1.22-1.21.68 0 1.22.54 1.22 1.2v27.57a3.68 3.68 0 0 0 3.69 3.66h36.04a3.68 3.68 0 0 0 3.7-3.66v-27.56a1.22 1.22 0 0 1 2.44 0v27.56a6.11 6.11 0 0 1-6.14 6.08Z" fill="#fff"/><path d="M39.02 68.05c-.67 0-1.22-.54-1.22-1.2v-32.44c0-.67.55-1.21 1.22-1.21.68 0 1.22.54 1.22 1.2v32.44c0 .67-.54 1.21-1.22 1.21Zm-15.21-45.8a7.8 7.8 0 0 1-3.17-10.6 7.9 7.9 0 0 1 10.66-3.16c5.82 3.13 8.96 11.86 9.09 12.23l-2.3.8c-.03-.08-2.96-8.22-7.95-10.9a5.46 5.46 0 0 0-7.36 2.18 5.39 5.39 0 0 0 2.2 7.32l-1.17 2.13Z" fill="#fff"/><path d="m54.23 22.25-1.16-2.13a5.38 5.38 0 0 0-1.03-9.92 5.43 5.43 0 0 0-4.14.42c-4.98 2.68-7.91 10.82-7.94 10.9l-2.3-.8c.13-.37 3.27-9.1 9.08-12.23a7.86 7.86 0 0 1 11.29 9.1 7.8 7.8 0 0 1-3.8 4.66Zm7.72 29.59h-45.86c-.67 0-1.22-.55-1.22-1.21 0-.67.55-1.22 1.22-1.22h45.86a1.21 1.21 0 1 1 0 2.42Z" fill="#fff"/></svg>