<svg width="101" height="18" viewBox="0 0 101 18" fill="none" xmlns="http://www.w3.org/2000/svg">
<g clip-path="url(#clip0_94552_2064)">
<path d="M1.26449 16.5385C0.36955 15.2762 -0.0747041 13.7627 1.02073e-05 12.2308V5.84615C-0.108365 4.29774 0.308071 2.75746 1.18546 1.46154C2.05478 0.461539 3.39829 0 5.37403 0C7.34978 0 8.61425 0.461539 9.40455 1.30769C10.2626 2.37941 10.6846 3.72136 10.59 5.07692V6.61539H6.71754V4.84615C6.74881 4.32289 6.66808 3.799 6.48045 3.30769C6.38016 3.10938 6.2212 2.9448 6.02403 2.83513C5.82686 2.72547 5.60049 2.67572 5.37403 2.69231C4.82082 2.69231 4.42568 2.84615 4.26762 3.23077C4.08883 3.77733 4.00862 4.34988 4.03053 4.92308V13.1538C3.98879 13.71 4.0978 14.267 4.34665 14.7692C4.5047 15.1538 4.89985 15.3077 5.45306 15.3077C6.00627 15.3077 6.32239 15.1538 6.48045 14.7692C6.66013 14.2494 6.74049 13.7019 6.71754 13.1538V11.3077H10.59V12.8462C10.6704 14.2238 10.2508 15.5852 9.40455 16.6923C8.61425 17.6154 7.27075 18.0769 5.37403 18.0769C3.47732 18 2.05478 17.5385 1.26449 16.5385Z" fill="#111111"/>
<path d="M15.2527 0.231825H19.7574L23.0767 17.7703H19.4413L18.8091 14.078H16.2011L15.5689 17.7703H11.8545L15.2527 0.231825ZM18.493 11.7703L17.5446 4.92413L16.5962 11.7703H18.493Z" fill="#111111"/>
<path d="M25.8427 3.1549H23.1557V0.231825H32.5603V3.07798H29.8732V17.7703H25.8427V3.1549Z" fill="#111111"/>
<path d="M39.7519 0.231825H46.7066V2.07798H42.2019V7.84721H45.8372V9.61644H42.2019V16.078H46.7066V17.8472H39.6729V0.231825H39.7519Z" fill="#111111"/>
<path d="M48.7613 0.231825H50.5L55.6369 11.8472V0.231825H57.6917V17.7703H56.1111L50.8951 5.77029V17.7703H48.7613V0.231825Z" fill="#111111"/>
<path d="M60.0626 0.231825H67.0172V2.07798H62.5125V7.84721H66.1479V9.61644H62.5125V16.078H67.0172V17.8472H60.0626V0.231825Z" fill="#111111"/>
<path d="M69.072 0.231991H72.7074C74.1375 0.135839 75.5587 0.515574 76.7379 1.30891C77.6072 2.00122 78.0024 3.23199 78.0024 4.84738C78.0024 7.07815 77.2911 8.46276 75.7895 8.9243L78.3185 17.6935H75.8686L73.4977 9.46276H71.5219V17.6935H68.993V0.231991H69.072ZM72.5493 7.77045C73.364 7.8358 74.1761 7.61774 74.8412 7.15507C75.3153 6.77045 75.5524 6.00122 75.5524 4.84738C75.5743 4.27418 75.4941 3.70162 75.3153 3.15507C75.1375 2.76288 74.832 2.43852 74.446 2.23199C73.9017 1.99057 73.3042 1.88482 72.7074 1.9243H71.6009V7.69353H72.5493V7.77045Z" fill="#111111"/>
<path d="M81.1635 16.4626C80.342 15.1176 79.9564 13.5627 80.0571 12.001V6.15486C80.0376 5.04012 80.1705 3.92781 80.4523 2.84717C80.7167 2.03965 81.2437 1.3377 81.9538 0.847171C82.8362 0.338767 83.8542 0.097748 84.8779 0.154863C86.5375 0.154863 87.723 0.539478 88.4343 1.38563C89.2525 2.50293 89.6438 3.86339 89.5407 5.23179V5.84717H87.1698V5.30871C87.1734 4.66448 87.1205 4.02112 87.0117 3.38563C86.9451 2.98405 86.7178 2.6245 86.3795 2.38563C85.9353 2.10184 85.4081 1.9668 84.8779 2.00102C84.3113 1.96567 83.7504 2.12945 83.2973 2.46256C83.1114 2.61503 82.9595 2.80283 82.8508 3.01446C82.7421 3.22609 82.6789 3.4571 82.6651 3.69332C82.5609 4.38101 82.5081 5.07513 82.507 5.77025V12.3087C82.4488 13.3048 82.6105 14.3016 82.9812 15.2318C83.2973 15.8472 83.9296 16.0779 84.8779 16.0779C85.2524 16.1234 85.6323 16.06 85.9698 15.8957C86.3073 15.7314 86.5873 15.4737 86.7746 15.1549C87.1922 14.1821 87.3812 13.1309 87.3278 12.0779V10.8472H85.036V9.07794H89.6197V17.7702H88.0391L87.802 15.7702C87.5948 16.4405 87.1634 17.0242 86.5763 17.4284C85.9892 17.8326 85.2801 18.0341 84.5618 18.001C83.9088 18.0384 83.2565 17.9174 82.6634 17.6489C82.0702 17.3804 81.5549 16.9727 81.1635 16.4626Z" fill="#111111"/>
<path d="M94.6776 11.6178L90.8052 0.310091H93.176L95.9421 8.77163L98.6291 0.310091H101L97.1275 11.6178V17.7716H94.7566V11.6178H94.6776Z" fill="#111111"/>
</g>
<defs>
<clipPath id="clip0_94552_2064">
<rect width="101" height="18" fill="white"/>
</clipPath>
</defs>
</svg>
